# xmcd
#
# Track frame offsets: 
#        150
#        24826
#        41731
#        58600
#        86667
#
# Disc length: 1518 seconds
#
# Revision: 1
# Processed by: cddbd v1.5.2PL0 Copyright (c) Steve Scherf et al.
# Submitted via: ExactAudioCopy v1.0b3
#
DISCID=3505ec05
DTITLE=Xavier Naidoo - Was Wir Alleine Nicht Schaffen
DYEAR=2006
DGENRE=Soul
TTITLE0=Was Wir Alleine Nicht Schaffen (Rap Version) (feat. Tone)
TTITLE1=Was Wir Alleine Nicht Schaffen (Band Version)
TTITLE2=Was Wir Alleine Nicht Schaffen (Radio Remix)
TTITLE3=Was Wir Alleine Nicht Schaffen (Instrumental)
TTITLE4=Daten - CD
EXTD=
EXTT0=
EXTT1=
EXTT2=
EXTT3=
EXTT4=
PLAYORDER=
